<?xml version="1.0" encoding="UTF-8" standalone="no"?>
<!-- Created with Inkscape (http://www.inkscape.org/) -->

<svg
   xmlns:dc="http://purl.org/dc/elements/1.1/"
   xmlns:cc="http://creativecommons.org/ns#"
   xmlns:rdf="http://www.w3.org/1999/02/22-rdf-syntax-ns#"
   xmlns:svg="http://www.w3.org/2000/svg"
   xmlns="http://www.w3.org/2000/svg"
   version="1.1"
   width="1370"
   height="975"
   id="svg3583"
   xml:space="preserve"><metadata
     id="metadata3589"><rdf:RDF><cc:Work
         rdf:about=""><dc:format>image/svg+xml</dc:format><dc:type
           rdf:resource="http://purl.org/dc/dcmitype/StillImage" /><dc:title></dc:title></cc:Work></rdf:RDF></metadata><defs
     id="defs3587" /><g
     transform="matrix(1.25,0,0,-1.25,0,975)"
     id="g3591"><g
       transform="matrix(0.1,0,0,0.1,-6.6101697,-102.45763)"
       id="g3593"><path
         d="m 980.0893,1477.6103 7693.8592,-7.9507 c 0,0 -1270.3636,252.0331 -1842.9454,874.9917 -572.547,622.9585 -1216.7016,835.0284 -1753.4622,862.0291 -47.6456,2.4141 -93.9696,4.3821 -139.8416,5.4579 -3.5473,454.2631 27.4745,1303.6709 257.6688,2154.4695 7.0599,26.0561 14.5719,51.3512 21.8752,77.04 25.4226,76.3052 185.6092,453.8694 882.6955,523.1687 -32.7259,-194.8829 -28.5526,-524.6644 296.3069,-738.125 485.3939,-318.9707 1581.4164,-283.547 1675.3512,-708.8151 93.9697,-425.2943 501.0439,413.4602 93.9697,1110.4674 -365.8278,626.3435 -1354.1782,606.4275 -1869.3071,525.2416 -11.9635,2.9651 -24.5183,4.9594 -37.7687,4.9594 l -4.3472,-0.053 c -401.4054,-10.6271 -679.4888,-104.6705 -871.4622,-220.283 69.173,177.5121 145.719,343.1901 229.4291,497.2438 7.0252,7.4784 12.7983,15.7964 16.7282,24.9803 2.504,5.9302 4.5559,11.598 6.9903,17.4757 451.7985,806.6895 1107.534,1281.6032 1960.1815,1417.8402 -30.0133,-225.7146 -6.4339,-574.9136 344.3698,-805.43 554.6712,-364.4968 1807.1591,-323.9826 1914.5182,-809.9957 107.3595,-486.0132 572.5815,472.4997 107.3595,1269.0081 -465.2231,796.5085 -1811.8198,678.5082 -2313.3157,567.1991 0,0 -3.8604,-9.8137 -9.5987,-27.2894 -704.0419,-93.0725 -1294.1517,-392.3634 -1757.1834,-892.2312 -37.2818,-40.278 -73.4855,-82.3142 -109.1328,-125.19 -1.4606,233.639 -86.7706,424.2972 -256.0342,569.8231 -321.7642,276.5935 -861.7244,314.3525 -1205.8856,306.1132 l -0.5912,3.0176 c -478.2296,159.3017 -1793.3523,407.5825 -2391.0437,-336.9188 -597.7261,-744.475 -300.5498,-1740.3008 -110.8716,-1268.8244 189.6781,471.4501 1424.7423,309.2095 2037.1795,616.5823 409.0565,205.2738 478.8904,577.3538 480.2467,801.9925 298.637,6.4026 754.3306,-24.6653 1008.452,-243.5313 237.3238,-204.4079 258.8512,-540.6707 64.2346,-999.3157 -170.3417,-307.5827 -311.157,-658.1462 -421.7504,-1048.3317 -1.9128,-6.0089 -2.8866,-9.6562 -2.9909,-10.1023 l -0.1043,-0.8659 c -5.9471,-21.0968 -12.1027,-41.9049 -17.8758,-63.2379 C 4721.6944,4532.524 4690.5682,3667.241 4694.3938,3205.6309 4296.8835,3170.7057 3828.9829,2992.905 2787.2485,2315.6825 1791.3513,1668.2423 980.0893,1477.6103 980.0893,1477.6103"
         id="path3607"
         style="fill:#ffffff;fill-opacity:1;fill-rule:nonzero;stroke:none" /></g></g></svg>